<svg width="30" height="30" viewBox="0 0 30 30" fill="none" xmlns="http://www.w3.org/2000/svg">
<path d="M15.0024 0C6.75244 0 0.00244141 6.75 0.00244141 15C0.00244141 23.25 6.75244 30 15.0024 30C23.2524 30 30.0024 23.25 30.0024 15C30.0024 6.75 23.2524 0 15.0024 0ZM9.00244 27.075V23.25C9.00244 19.35 12.7524 18.75 15.0024 18.75C17.2524 18.75 21.0024 19.35 21.0024 23.25V27.075C17.2524 28.95 12.7524 28.95 9.00244 27.075ZM22.5024 26.25V23.25C22.5024 19.5 19.7274 17.25 15.0024 17.25C10.2774 17.25 7.50244 19.5 7.50244 23.25V26.25C1.27744 22.05 -0.372559 13.725 3.75244 7.5C7.87744 1.275 16.2774 -0.375 22.5024 3.75C28.7274 7.875 30.3774 16.275 26.2524 22.5C25.2774 24 24.0024 25.2 22.5024 26.25ZM15.0024 6.75C12.5274 6.75 11.2524 9 11.2524 11.25C11.2524 13.5 12.5274 15.75 15.0024 15.75C17.4774 15.75 18.7524 13.5 18.7524 11.25C18.7524 9 17.4774 6.75 15.0024 6.75ZM15.0024 14.25C13.2024 14.25 12.7524 12.3 12.7524 11.25C12.7524 10.2 13.2024 8.25 15.0024 8.25C16.8024 8.25 17.2524 10.2 17.2524 11.25C17.2524 12.3 16.8024 14.25 15.0024 14.25Z" fill="white"/>
</svg>
